<?xml version="1.0" standalone="no"?>
<svg viewBox="0 0 200 200" xmlns="http://www.w3.org/2000/svg">
  <path fill="#D0E2FF" d="M36.4,-64.9C46.8,-57,54.5,-46.5,58.9,-35.2C63.2,-24,64.2,-12,65.1,0.5C66.1,13,66.9,26.1,62.3,37C57.8,48,47.9,56.8,36.6,60.9C25.3,65,12.6,64.3,0.5,63.5C-11.7,62.7,-23.4,61.8,-35.2,58C-47.1,54.2,-59,47.6,-65.9,37.4C-72.9,27.3,-74.8,13.7,-73.3,0.9C-71.8,-11.9,-66.8,-23.8,-61.1,-36C-55.4,-48.3,-48.9,-60.9,-38.6,-68.8C-28.3,-76.7,-14.2,-79.9,-0.6,-78.9C13,-77.9,26,-72.8,36.4,-64.9Z" transform="translate(100 100)" />
</svg>
